name D:\school\WTK\thesis\model\3dpredictsim\Results\batch_windlass\Pog_s1_tmt_aCst_d05_k1000_WL10_ig24.mot
datacolumns 128
datarows 4
range 0.52393466 0.55537074
endheader
time	pelvis_tilt	pelvis_list	pelvis_rotation	pelvis_tx	pelvis_ty	pelvis_tz	hip_flexion_l	hip_adduction_l	hip_rotation_l	hip_flexion_r	hip_adduction_r	hip_rotation_r	knee_angle_l	knee_angle_r	ankle_angle_l	ankle_angle_r	subtalar_angle_l	subtalar_angle_r	tmt_angle_l	tmt_angle_r	mtp_angle_l	mtp_angle_r	lumbar_extension	lumbar_bending	lumbar_rotation	arm_flex_l	arm_add_l	arm_rot_l	arm_flex_r	arm_add_r	arm_rot_r	elbow_flex_l	elbow_flex_r	pro_sup_l	pro_sup_r	glut_med1_l/activation	glut_med2_l/activation	glut_med3_l/activation	glut_min1_l/activation	glut_min2_l/activation	glut_min3_l/activation	semimem_l/activation	semiten_l/activation	bifemlh_l/activation	bifemsh_l/activation	sar_l/activation	add_long_l/activation	add_brev_l/activation	add_mag1_l/activation	add_mag2_l/activation	add_mag3_l/activation	tfl_l/activation	pect_l/activation	grac_l/activation	glut_max1_l/activation	glut_max2_l/activation	glut_max3_l/activation	iliacus_l/activation	psoas_l/activation	quad_fem_l/activation	gem_l/activation	peri_l/activation	rect_fem_l/activation	vas_med_l/activation	vas_int_l/activation	vas_lat_l/activation	med_gas_l/activation	lat_gas_l/activation	soleus_l/activation	tib_post_l/activation	flex_dig_l/activation	flex_hal_l/activation	tib_ant_l/activation	per_brev_l/activation	per_long_l/activation	per_tert_l/activation	ext_dig_l/activation	ext_hal_l/activation	ercspn_l/activation	intobl_l/activation	extobl_l/activation	glut_med1_r/activation	glut_med2_r/activation	glut_med3_r/activation	glut_min1_r/activation	glut_min2_r/activation	glut_min3_r/activation	semimem_r/activation	semiten_r/activation	bifemlh_r/activation	bifemsh_r/activation	sar_r/activation	add_long_r/activation	add_brev_r/activation	add_mag1_r/activation	add_mag2_r/activation	add_mag3_r/activation	tfl_r/activation	pect_r/activation	grac_r/activation	glut_max1_r/activation	glut_max2_r/activation	glut_max3_r/activation	iliacus_r/activation	psoas_r/activation	quad_fem_r/activation	gem_r/activation	peri_r/activation	rect_fem_r/activation	vas_med_r/activation	vas_int_r/activation	vas_lat_r/activation	med_gas_r/activation	lat_gas_r/activation	soleus_r/activation	tib_post_r/activation	flex_dig_r/activation	flex_hal_r/activation	tib_ant_r/activation	per_brev_r/activation	per_long_r/activation	per_tert_r/activation	ext_dig_r/activation	ext_hal_r/activation	ercspn_r/activation	intobl_r/activation	extobl_r/activation	
          0.52393466	         -2.92244375	          1.58841318	         -5.52188419	          0.65491833	          0.85751239	          0.00135626	         31.37955876	          2.33913118	         -3.41285601	        -18.14363876	         -1.49093236	          6.71554821	        -18.47514335	         -8.99720347	          1.07886978	         -0.82760675	          0.32052575	         11.30242391	          0.01647039	         -1.61796700	          0.22657497	         25.18754790	         -1.17358483	          0.13318884	          1.64786053	         -6.99013198	        -13.59642544	         11.38945157	          5.81883205	        -13.48066839	         17.51701991	         14.73854503	         30.17563552	         86.51662706	         86.51662706	          0.05873218	          0.05873227	          0.05000014	          0.05873237	          0.05873234	          0.05873187	          0.05000043	          0.05000039	          0.05873222	          0.05000008	          0.05000025	          0.09519205	          0.21218853	          0.12729284	          0.14200089	          0.12651235	          0.05000015	          0.07570567	          0.05000277	          0.05000084	          0.05000476	          0.14962021	          0.05190479	          0.05143292	          0.33684370	          0.18131623	          0.12765710	          0.06117556	          0.18852454	          0.18341807	          0.15788862	          0.05523983	          0.05144639	          0.05448306	          0.05000002	          0.05000029	          0.05000033	          0.55910737	          0.27933687	          0.15796505	          0.43245719	          0.58948968	          0.23890656	          0.05000710	          0.10977242	          0.10999148	          0.27521738	          0.08108358	          0.05875685	          0.28705220	          0.18636128	          0.08568766	          0.05000212	          0.05000020	          0.05000015	          0.06974816	          0.08687231	          0.09935446	          0.10124950	          0.05000220	          0.05000275	          0.05000091	          0.25907281	          0.08922704	          0.05000080	          0.05000116	          0.05000078	          0.05000075	          0.27965615	          0.50386140	          0.05000012	          0.05000034	          0.05000017	          0.17073152	          0.12874034	          0.06004058	          0.07702096	          0.28293812	          0.37002226	          0.24882095	          0.21985359	          0.20646965	          0.28051536	          0.05000001	          0.06391518	          0.15147826	          0.05000011	          0.05000002	          0.05000010	          0.05000002	          0.05636591	          0.05000015	
          0.53441336	         -2.91205672	          1.68943494	         -5.78937983	          0.67084652	          0.85638941	          0.00118128	         30.73137489	          2.69031029	         -3.13529771	        -17.92377739	         -1.79604495	          6.49302064	        -18.67601548	        -10.99348992	          0.60804267	         -1.68476135	         -0.30765646	         12.17743940	         -0.01375440	         -1.96411178	          0.32572983	         26.09955006	         -0.97348651	         -0.11123763	          1.70456901	         -7.96909314	        -13.60021866	         11.17596345	          5.58372286	        -13.50889438	         17.75258821	         14.65723370	         31.14284683	         86.51662706	         86.51662706	          0.05000003	          0.05000012	          0.12816069	          0.05000014	          0.05000014	          0.05000014	          0.05000008	          0.05000015	          0.05000010	          0.05000012	          0.05009189	          0.08103912	          0.18064072	          0.27728602	          0.20526124	          0.14300416	          0.05000061	          0.06445619	          0.05001418	          0.07757345	          0.10472471	          0.12737495	          0.05000019	          0.05869527	          0.34510606	          0.15435839	          0.10867723	          0.05873245	          0.22717270	          0.22455891	          0.19314324	          0.05942186	          0.05873329	          0.05000006	          0.05000008	          0.05873235	          0.05000378	          0.47598046	          0.25015102	          0.14821669	          0.36816068	          0.52974492	          0.20338629	          0.05000000	          0.09345159	          0.09363807	          0.23429844	          0.06902818	          0.05002126	          0.24437372	          0.15865334	          0.07294775	          0.05000422	          0.05000086	          0.05000311	          0.05937811	          0.07395643	          0.18167370	          0.22645697	          0.05873438	          0.05873247	          0.05873286	          0.22055431	          0.08103406	          0.05781489	          0.05001503	          0.05001216	          0.05067579	          0.23807726	          0.46463625	          0.05873211	          0.05873120	          0.05000035	          0.14534742	          0.10960012	          0.15428078	          0.15427126	          0.24087120	          0.31500778	          0.21182654	          0.18716604	          0.17577211	          0.23880873	          0.05000004	          0.05441239	          0.12895756	          0.05000006	          0.05000007	          0.05000015	          0.05152066	          0.05873228	          0.06112738	
          0.54489205	         -2.89878530	          1.79633657	         -6.02941580	          0.68696992	          0.85524695	          0.00101538	         29.89667600	          3.00468059	         -2.82241118	        -17.61851574	         -2.09492657	          6.25891097	        -19.09921602	        -13.12794297	          0.45920292	         -2.66389889	         -0.97933599	         12.98086241	         -0.30468474	         -2.29553997	          0.29334585	         26.73006825	         -0.75976502	         -0.36862042	          1.75135551	         -8.94467520	        -13.60827078	         11.01606362	          5.28033222	        -13.54176157	         17.92263011	         14.58509194	         32.10861265	         86.51662706	         86.51662706	          0.25976752	          0.29332230	          0.40227070	          0.35474703	          0.22410105	          0.27805760	          0.07403078	          0.07802317	          0.07602808	          0.06899033	          0.05872927	          0.06899038	          0.15378333	          0.23605955	          0.17474337	          0.12240279	          0.05000032	          0.05873112	          0.09101112	          0.20428445	          0.16394682	          0.10843711	          0.05873220	          0.05009085	          0.29379614	          0.13140869	          0.23445136	          0.05000021	          0.20335587	          0.23974330	          0.19923827	          0.05058712	          0.05000097	          0.05589958	          0.05000010	          0.05000065	          0.05000082	          0.59016763	          0.21295887	          0.12618002	          0.39275545	          0.57888884	          0.29253394	          0.05542135	          0.09519075	          0.07971607	          0.30957557	          0.05876516	          0.05000002	          0.33874575	          0.13506500	          0.06210199	          0.05879157	          0.05000010	          0.05000007	          0.05054989	          0.06296107	          0.15528378	          0.19278780	          0.05000196	          0.05000070	          0.05000074	          0.24519276	          0.06899031	          0.05000027	          0.05000059	          0.05000036	          0.05000024	          0.20415620	          0.44400535	          0.05000003	          0.05000014	          0.05000006	          0.12373744	          0.09330499	          0.13134257	          0.13133446	          0.20505874	          0.26817278	          0.18033241	          0.15933843	          0.14963860	          0.20330298	          0.09066200	          0.15920659	          0.16234467	          0.13083813	          0.15064427	          0.05000123	          0.07776440	          0.05000004	          0.05203905	
          0.55537074	         -2.88483942	          1.90148440	         -6.23583463	          0.70303122	          0.85418087	          0.00082573	         28.99942436	          3.31774968	         -2.51360811	        -17.19101604	         -2.37875724	          6.01695235	        -19.47119977	        -15.43777704	          0.43181400	         -3.69659435	         -1.68647349	         13.71063547	         -0.57354703	         -2.56722894	          0.31657474	         26.81546712	         -0.55678759	         -0.62777095	          1.78948979	         -9.85491459	        -13.61292115	         10.92767009	          4.95515855	        -13.57738343	         18.04598584	         14.48236176	         33.03244588	         86.51662706	         86.51662706	          0.38387719	          0.44179300	          0.50724137	          0.30200404	          0.36071952	          0.39274844	          0.06349783	          0.09527480	          0.06992628	          0.05873299	          0.05000019	          0.05873300	          0.13091905	          0.20096286	          0.19806497	          0.16629997	          0.05000022	          0.05000127	          0.07748199	          0.30022139	          0.22641318	          0.17318310	          0.05000004	          0.05000004	          0.25011494	          0.11187109	          0.19959363	          0.05000003	          0.30048921	          0.32280362	          0.27161083	          0.05000001	          0.05000003	          0.05000000	          0.08848007	          0.05000410	          0.05000087	          0.65430670	          0.18129640	          0.10741973	          0.40725209	          0.56626500	          0.38992039	          0.07548394	          0.08103791	          0.06786398	          0.26354826	          0.05002805	          0.05000005	          0.28838148	          0.11498374	          0.05286879	          0.07938244	          0.05000030	          0.05000043	          0.05000006	          0.05360026	          0.22681418	          0.17422219	          0.05000056	          0.11842227	          0.13134181	          0.20873837	          0.05873324	          0.05000034	          0.05000164	          0.05000119	          0.05000104	          0.17380251	          0.39309545	          0.05000009	          0.05000041	          0.05000013	          0.10534033	          0.11181556	          0.11181560	          0.11181557	          0.17457084	          0.22830116	          0.15352079	          0.13564822	          0.12739062	          0.17307624	          0.18109993	          0.13553624	          0.13820752	          0.22287539	          0.23116518	          0.10560200	          0.11156818	          0.05000002	          0.05000002	
